<svg width="512" height="512" viewBox="0 0 512 512" fill="none" xmlns="http://www.w3.org/2000/svg">
  <g stroke="#073D5A" stroke-width="22" stroke-linecap="round" stroke-linejoin="round">
    <circle cx="226" cy="206" r="156"/>
    <path d="M116 206C116 145.2 165.2 96 226 96"/>
    <path d="M336 206C336 145.2 286.8 96 226 96"/>
    <path d="M226 352V168"/>
    <path d="M226 168C196 136 197 94 226 62C255 94 256 136 226 168Z" fill="#FFFDF6"/>
    <path d="M226 199C185 163 141 158 99 180C132 226 178 238 226 199Z" fill="#FFFDF6"/>
    <path d="M226 199C267 163 311 158 353 180C320 226 274 238 226 199Z" fill="#FFFDF6"/>
    <path d="M226 293C176 244 123 235 76 258C114 323 169 342 226 293Z" fill="#FFFDF6"/>
    <path d="M226 293C276 244 329 235 376 258C338 323 283 342 226 293Z" fill="#FFFDF6"/>
    <path d="M336 316L382 362"/>
    <path d="M370 392L402 360L489 447C507 465 507 494 489 512C471 530 442 530 424 512L337 425L370 392Z" fill="#FFFDF6"/>
  </g>
</svg>
